<?xml version="1.0" encoding="UTF-8" standalone="no"?>
<!DOCTYPE svg PUBLIC "-//W3C//DTD SVG 1.1//EN"
 "http://www.w3.org/Graphics/SVG/1.1/DTD/svg11.dtd">
<!-- Generated by graphviz version 2.30.1 (20180420.1509)
 -->
<!-- Title: runsc_tldk Pages: 1 -->
<svg width="100%" height="100%" xmlns="http://www.w3.org/2000/svg" xmlns:xlink="http://www.w3.org/1999/xlink">
<script type="text/ecmascript"><![CDATA[
/**
 *  SVGPan library 1.2.2
 * ======================
 *
 * Given an unique existing element with id "viewport" (or when missing, the
 * first g-element), including the library into any SVG adds the following
 * capabilities:
 *
 *  - Mouse panning
 *  - Mouse zooming (using the wheel)
 *  - Object dragging
 *
 * You can configure the behaviour of the pan/zoom/drag with the variables
 * listed in the CONFIGURATION section of this file.
 *
 * Known issues:
 *
 *  - Zooming (while panning) on Safari has still some issues
 *
 * Releases:
 *
 * 1.2.2, Tue Aug 30 17:21:56 CEST 2011, Andrea Leofreddi
 *	- Fixed viewBox on root tag (#7)
 *	- Improved zoom speed (#2)
 *
 * 1.2.1, Mon Jul  4 00:33:18 CEST 2011, Andrea Leofreddi
 *	- Fixed a regression with mouse wheel (now working on Firefox 5)
 *	- Working with viewBox attribute (#4)
 *	- Added "use strict;" and fixed resulting warnings (#5)
 *	- Added configuration variables, dragging is disabled by default (#3)
 *
 * 1.2, Sat Mar 20 08:42:50 GMT 2010, Zeng Xiaohui
 *	Fixed a bug with browser mouse handler interaction
 *
 * 1.1, Wed Feb  3 17:39:33 GMT 2010, Zeng Xiaohui
 *	Updated the zoom code to support the mouse wheel on Safari/Chrome
 *
 * 1.0, Andrea Leofreddi
 *	First release
 *
 * This code is licensed under the following BSD license:
 *
 * Copyright 2009-2017 Andrea Leofreddi <a.leofreddi@vleo.net>. All rights reserved.
 *
 * Redistribution and use in source and binary forms, with or without modification, are
 * permitted provided that the following conditions are met:
 *
 *    1. Redistributions of source code must retain the above copyright
 *       notice, this list of conditions and the following disclaimer.
 *    2. Redistributions in binary form must reproduce the above copyright
 *       notice, this list of conditions and the following disclaimer in the
 *       documentation and/or other materials provided with the distribution.
 *    3. Neither the name of the copyright holder nor the names of its
 *       contributors may be used to endorse or promote products derived from
 *       this software without specific prior written permission.
 *
 * THIS SOFTWARE IS PROVIDED BY COPYRIGHT HOLDERS AND CONTRIBUTORS ''AS IS'' AND ANY EXPRESS
 * OR IMPLIED WARRANTIES, INCLUDING, BUT NOT LIMITED TO, THE IMPLIED WARRANTIES OF MERCHANTABILITY
 * AND FITNESS FOR A PARTICULAR PURPOSE ARE DISCLAIMED. IN NO EVENT SHALL COPYRIGHT HOLDERS OR
 * CONTRIBUTORS BE LIABLE FOR ANY DIRECT, INDIRECT, INCIDENTAL, SPECIAL, EXEMPLARY, OR
 * CONSEQUENTIAL DAMAGES (INCLUDING, BUT NOT LIMITED TO, PROCUREMENT OF SUBSTITUTE GOODS OR
 * SERVICES; LOSS OF USE, DATA, OR PROFITS; OR BUSINESS INTERRUPTION) HOWEVER CAUSED AND ON
 * ANY THEORY OF LIABILITY, WHETHER IN CONTRACT, STRICT LIABILITY, OR TORT (INCLUDING
 * NEGLIGENCE OR OTHERWISE) ARISING IN ANY WAY OUT OF THE USE OF THIS SOFTWARE, EVEN IF
 * ADVISED OF THE POSSIBILITY OF SUCH DAMAGE.
 *
 * The views and conclusions contained in the software and documentation are those of the
 * authors and should not be interpreted as representing official policies, either expressed
 * or implied, of Andrea Leofreddi.
 */

"use strict";

/// CONFIGURATION
/// ====>

var enablePan = 1; // 1 or 0: enable or disable panning (default enabled)
var enableZoom = 1; // 1 or 0: enable or disable zooming (default enabled)
var enableDrag = 0; // 1 or 0: enable or disable dragging (default disabled)
var zoomScale = 0.2; // Zoom sensitivity

/// <====
/// END OF CONFIGURATION

var root = document.documentElement;

var state = 'none', svgRoot = null, stateTarget, stateOrigin, stateTf;

setupHandlers(root);

/**
 * Register handlers
 */
function setupHandlers(root){
	setAttributes(root, {
		"onmouseup" : "handleMouseUp(evt)",
		"onmousedown" : "handleMouseDown(evt)",
		"onmousemove" : "handleMouseMove(evt)",
		//"onmouseout" : "handleMouseUp(evt)", // Decomment this to stop the pan functionality when dragging out of the SVG element
	});

	if(navigator.userAgent.toLowerCase().indexOf('webkit') >= 0)
		window.addEventListener('mousewheel', handleMouseWheel, false); // Chrome/Safari
	else
		window.addEventListener('DOMMouseScroll', handleMouseWheel, false); // Others
}

/**
 * Retrieves the root element for SVG manipulation. The element is then cached into the svgRoot global variable.
 */
function getRoot(root) {
	if(svgRoot == null) {
		var r = root.getElementById("viewport") ? root.getElementById("viewport") : root.documentElement, t = r;

		while(t != root) {
			if(t.getAttribute("viewBox")) {
				setCTM(r, t.getCTM());

				t.removeAttribute("viewBox");
			}

			t = t.parentNode;
		}

		svgRoot = r;
	}

	return svgRoot;
}

/**
 * Instance an SVGPoint object with given event coordinates.
 */
function getEventPoint(evt) {
	var p = root.createSVGPoint();

	p.x = evt.clientX;
	p.y = evt.clientY;

	return p;
}

/**
 * Sets the current transform matrix of an element.
 */
function setCTM(element, matrix) {
	var s = "matrix(" + matrix.a + "," + matrix.b + "," + matrix.c + "," + matrix.d + "," + matrix.e + "," + matrix.f + ")";

	element.setAttribute("transform", s);
}

/**
 * Dumps a matrix to a string (useful for debug).
 */
function dumpMatrix(matrix) {
	var s = "[ " + matrix.a + ", " + matrix.c + ", " + matrix.e + "\n  " + matrix.b + ", " + matrix.d + ", " + matrix.f + "\n  0, 0, 1 ]";

	return s;
}

/**
 * Sets attributes of an element.
 */
function setAttributes(element, attributes){
	for (var i in attributes)
		element.setAttributeNS(null, i, attributes[i]);
}

/**
 * Handle mouse wheel event.
 */
function handleMouseWheel(evt) {
	if(!enableZoom)
		return;

	if(evt.preventDefault)
		evt.preventDefault();

	evt.returnValue = false;

	var svgDoc = evt.target.ownerDocument;

	var delta;

	if(evt.wheelDelta)
		delta = evt.wheelDelta / 360; // Chrome/Safari
	else
		delta = evt.detail / -9; // Mozilla

	var z = Math.pow(1 + zoomScale, delta);

	var g = getRoot(svgDoc);
	
	var p = getEventPoint(evt);

	p = p.matrixTransform(g.getCTM().inverse());

	// Compute new scale matrix in current mouse position
	var k = root.createSVGMatrix().translate(p.x, p.y).scale(z).translate(-p.x, -p.y);

        setCTM(g, g.getCTM().multiply(k));

	if(typeof(stateTf) == "undefined")
		stateTf = g.getCTM().inverse();

	stateTf = stateTf.multiply(k.inverse());
}

/**
 * Handle mouse move event.
 */
function handleMouseMove(evt) {
	if(evt.preventDefault)
		evt.preventDefault();

	evt.returnValue = false;

	var svgDoc = evt.target.ownerDocument;

	var g = getRoot(svgDoc);

	if(state == 'pan' && enablePan) {
		// Pan mode
		var p = getEventPoint(evt).matrixTransform(stateTf);

		setCTM(g, stateTf.inverse().translate(p.x - stateOrigin.x, p.y - stateOrigin.y));
	} else if(state == 'drag' && enableDrag) {
		// Drag mode
		var p = getEventPoint(evt).matrixTransform(g.getCTM().inverse());

		setCTM(stateTarget, root.createSVGMatrix().translate(p.x - stateOrigin.x, p.y - stateOrigin.y).multiply(g.getCTM().inverse()).multiply(stateTarget.getCTM()));

		stateOrigin = p;
	}
}

/**
 * Handle click event.
 */
function handleMouseDown(evt) {
	if(evt.preventDefault)
		evt.preventDefault();

	evt.returnValue = false;

	var svgDoc = evt.target.ownerDocument;

	var g = getRoot(svgDoc);

	if(
		evt.target.tagName == "svg"
		|| !enableDrag // Pan anyway when drag is disabled and the user clicked on an element
	) {
		// Pan mode
		state = 'pan';

		stateTf = g.getCTM().inverse();

		stateOrigin = getEventPoint(evt).matrixTransform(stateTf);
	} else {
		// Drag mode
		state = 'drag';

		stateTarget = evt.target;

		stateTf = g.getCTM().inverse();

		stateOrigin = getEventPoint(evt).matrixTransform(stateTf);
	}
}

/**
 * Handle mouse button release event.
 */
function handleMouseUp(evt) {
	if(evt.preventDefault)
		evt.preventDefault();

	evt.returnValue = false;

	var svgDoc = evt.target.ownerDocument;

	if(state == 'pan' || state == 'drag') {
		// Quit pan mode
		state = '';
	}
}
]]></script><g id="viewport" transform="scale(0.5,0.5) translate(0,0)"><g id="graph0" class="graph" transform="scale(1 1) rotate(0) translate(4 1315)">
<title>runsc_tldk</title>
<polygon fill="white" stroke="white" points="-4,5 -4,-1315 1190,-1315 1190,5 -4,5"/>
<g id="clust1" class="cluster"><title>cluster_L</title>
<polygon fill="none" stroke="black" points="8,-1207 8,-1303 498,-1303 498,-1207 8,-1207"/>
</g>
<!-- File: runsc_tldk -->
<g id="node1" class="node"><title>File: runsc_tldk</title>
<g id="a_node1"><a xlink:title="runsc_tldk">
<polygon fill="#f8f8f8" stroke="black" points="489.25,-1295 16.75,-1295 16.75,-1215 489.25,-1215 489.25,-1295"/>
<text text-anchor="start" x="24.5" y="-1278.2" font-family="Times,serif" font-size="16.00">File: runsc_tldk</text>
<text text-anchor="start" x="24.5" y="-1260.2" font-family="Times,serif" font-size="16.00">Type: inuse_space</text>
<text text-anchor="start" x="24.5" y="-1242.2" font-family="Times,serif" font-size="16.00">Time: Sep 27, 2019 at 3:23pm (CST)</text>
<text text-anchor="start" x="24.5" y="-1224.2" font-family="Times,serif" font-size="16.00">Showing nodes accounting for 23581.08kB, 100% of 23581.08kB total</text>
</a>
</g>
</g>
<!-- N1 -->
<g id="node1" class="node"><title>N1</title>
<g id="a_node1"><a xlink:title="gvisor.dev/gvisor/pkg/p9.(*connState).handleRequests (23581.08kB)">
<polygon fill="#edd5d5" stroke="#b20000" points="634.25,-1298 507.75,-1298 507.75,-1212 634.25,-1212 634.25,-1298"/>
<text text-anchor="middle" x="571" y="-1284.4" font-family="Times,serif" font-size="12.00">gvisor</text>
<text text-anchor="middle" x="571" y="-1271.4" font-family="Times,serif" font-size="12.00">dev/gvisor/pkg/p9</text>
<text text-anchor="middle" x="571" y="-1258.4" font-family="Times,serif" font-size="12.00">(*connState)</text>
<text text-anchor="middle" x="571" y="-1245.4" font-family="Times,serif" font-size="12.00">handleRequests</text>
<text text-anchor="middle" x="571" y="-1232.4" font-family="Times,serif" font-size="12.00">512.05kB (2.17%)</text>
<text text-anchor="middle" x="571" y="-1219.4" font-family="Times,serif" font-size="12.00">of 23581.08kB (100%)</text>
</a>
</g>
</g>
<!-- NN1_0 -->
<g id="NN1_0" class="node"><title>NN1_0</title>
<g id="a_NN1_0"><a xlink:title="512.05kB">
<polygon fill="#f8f8f8" stroke="black" points="598,-1160 548,-1160 544,-1156 544,-1124 594,-1124 598,-1128 598,-1160"/>
<polyline fill="none" stroke="black" points="594,-1156 544,-1156 "/>
<polyline fill="none" stroke="black" points="594,-1156 594,-1124 "/>
<polyline fill="none" stroke="black" points="594,-1156 598,-1160 "/>
<text text-anchor="middle" x="571" y="-1140.1" font-family="Times,serif" font-size="8.00">32B..96B</text>
</a>
</g>
</g>
<!-- N1&#45;&gt;NN1_0 -->
<g id="edge1" class="edge"><title>N1&#45;&gt;NN1_0</title>
<g id="a_edge1"><a xlink:title="512.05kB">
<path fill="none" stroke="black" d="M571,-1211.72C571,-1197.88 571,-1182.88 571,-1170.44"/>
<polygon fill="black" stroke="black" points="574.5,-1170.25 571,-1160.25 567.5,-1170.25 574.5,-1170.25"/>
</a>
</g>
<g id="a_edge1&#45;label"><a xlink:title="512.05kB">
<text text-anchor="middle" x="600" y="-1182.3" font-family="Times,serif" font-size="14.00"> 512.05kB</text>
</a>
</g>
</g>
<!-- N6 -->
<g id="node6" class="node"><title>N6</title>
<g id="a_node6"><a xlink:title="gvisor.dev/gvisor/pkg/p9.(*connState).handleRequest (23069.03kB)">
<polygon fill="#edd5d5" stroke="#b20100" points="694.25,-1085.5 593.75,-1085.5 593.75,-1032.5 694.25,-1032.5 694.25,-1085.5"/>
<text text-anchor="middle" x="644" y="-1075.1" font-family="Times,serif" font-size="8.00">gvisor</text>
<text text-anchor="middle" x="644" y="-1066.1" font-family="Times,serif" font-size="8.00">dev/gvisor/pkg/p9</text>
<text text-anchor="middle" x="644" y="-1057.1" font-family="Times,serif" font-size="8.00">(*connState)</text>
<text text-anchor="middle" x="644" y="-1048.1" font-family="Times,serif" font-size="8.00">handleRequest</text>
<text text-anchor="middle" x="644" y="-1039.1" font-family="Times,serif" font-size="8.00">0 of 23069.03kB (97.83%)</text>
</a>
</g>
</g>
<!-- N1&#45;&gt;N6 -->
<g id="edge11" class="edge"><title>N1&#45;&gt;N6</title>
<g id="a_edge11"><a xlink:title="gvisor.dev/gvisor/pkg/p9.(*connState).handleRequests &#45;&gt; gvisor.dev/gvisor/pkg/p9.(*connState).handleRequest (23069.03kB)">
<path fill="none" stroke="#b20100" stroke-width="5" d="M618.909,-1211.74C623.23,-1206.16 627.072,-1200.21 630,-1194 644.594,-1163.05 647.079,-1123.7 646.53,-1095.67"/>
<polygon fill="#b20100" stroke="#b20100" points="650.897,-1095.37 646.189,-1085.53 642.152,-1095.67 650.897,-1095.37"/>
</a>
</g>
<g id="a_edge11&#45;label"><a xlink:title="gvisor.dev/gvisor/pkg/p9.(*connState).handleRequests &#45;&gt; gvisor.dev/gvisor/pkg/p9.(*connState).handleRequest (23069.03kB)">
<text text-anchor="middle" x="681.5" y="-1138.3" font-family="Times,serif" font-size="14.00"> 23069.03kB</text>
</a>
</g>
</g>
<!-- N2 -->
<g id="node2" class="node"><title>N2</title>
<g id="a_node2"><a xlink:title="gvisor.dev/gvisor/pkg/p9.newPathNode (13312.80kB)">
<polygon fill="#edd9d5" stroke="#b21c00" points="838.25,-200 607.75,-200 607.75,-88 838.25,-88 838.25,-200"/>
<text text-anchor="middle" x="723" y="-176.8" font-family="Times,serif" font-size="24.00">gvisor</text>
<text text-anchor="middle" x="723" y="-150.8" font-family="Times,serif" font-size="24.00">dev/gvisor/pkg/p9</text>
<text text-anchor="middle" x="723" y="-124.8" font-family="Times,serif" font-size="24.00">newPathNode</text>
<text text-anchor="middle" x="723" y="-98.8" font-family="Times,serif" font-size="24.00">13312.80kB (56.46%)</text>
</a>
</g>
</g>
<!-- NN2_0 -->
<g id="NN2_0" class="node"><title>NN2_0</title>
<g id="a_NN2_0"><a xlink:title="7168.33kB">
<polygon fill="#f8f8f8" stroke="black" points="707,-36 657,-36 653,-32 653,-0 703,-0 707,-4 707,-36"/>
<polyline fill="none" stroke="black" points="703,-32 653,-32 "/>
<polyline fill="none" stroke="black" points="703,-32 703,-0 "/>
<polyline fill="none" stroke="black" points="703,-32 707,-36 "/>
<text text-anchor="middle" x="680" y="-16.1" font-family="Times,serif" font-size="8.00">48B</text>
</a>
</g>
</g>
<!-- N2&#45;&gt;NN2_0 -->
<g id="edge2" class="edge"><title>N2&#45;&gt;NN2_0</title>
<g id="a_edge2"><a xlink:title="7168.33kB">
<path fill="none" stroke="black" d="M687.465,-87.6546C684.877,-81.8577 682.643,-75.9172 681,-70 678.915,-62.4909 678.145,-54.118 678.033,-46.3624"/>
<polygon fill="black" stroke="black" points="681.533,-46.3735 678.225,-36.3083 674.534,-46.2394 681.533,-46.3735"/>
</a>
</g>
<g id="a_edge2&#45;label"><a xlink:title="7168.33kB">
<text text-anchor="middle" x="713" y="-58.3" font-family="Times,serif" font-size="14.00"> 7168.33kB</text>
</a>
</g>
</g>
<!-- NN2_1 -->
<g id="NN2_1" class="node"><title>NN2_1</title>
<g id="a_NN2_1"><a xlink:title="6144.47kB">
<polygon fill="#f8f8f8" stroke="black" points="794,-36 744,-36 740,-32 740,-0 790,-0 794,-4 794,-36"/>
<polyline fill="none" stroke="black" points="790,-32 740,-32 "/>
<polyline fill="none" stroke="black" points="790,-32 790,-0 "/>
<polyline fill="none" stroke="black" points="790,-32 794,-36 "/>
<text text-anchor="middle" x="767" y="-16.1" font-family="Times,serif" font-size="8.00">80B</text>
</a>
</g>
</g>
<!-- N2&#45;&gt;NN2_1 -->
<g id="edge3" class="edge"><title>N2&#45;&gt;NN2_1</title>
<g id="a_edge3"><a xlink:title="6144.47kB">
<path fill="none" stroke="black" d="M742.555,-87.8897C747.755,-73.2351 753.14,-58.0606 757.527,-45.6959"/>
<polygon fill="black" stroke="black" points="760.907,-46.6382 760.952,-36.0435 754.31,-44.2973 760.907,-46.6382"/>
</a>
</g>
<g id="a_edge3&#45;label"><a xlink:title="6144.47kB">
<text text-anchor="middle" x="786" y="-58.3" font-family="Times,serif" font-size="14.00"> 6144.47kB</text>
</a>
</g>
</g>
<!-- N3 -->
<g id="node3" class="node"><title>N3</title>
<g id="a_node3"><a xlink:title="gvisor.dev/gvisor/pkg/p9.doWalk.func2 (22045kB)">
<polygon fill="#edd5d5" stroke="#b20300" points="690,-637.5 598,-637.5 598,-584.5 690,-584.5 690,-637.5"/>
<text text-anchor="middle" x="644" y="-627.1" font-family="Times,serif" font-size="8.00">gvisor</text>
<text text-anchor="middle" x="644" y="-618.1" font-family="Times,serif" font-size="8.00">dev/gvisor/pkg/p9</text>
<text text-anchor="middle" x="644" y="-609.1" font-family="Times,serif" font-size="8.00">doWalk</text>
<text text-anchor="middle" x="644" y="-600.1" font-family="Times,serif" font-size="8.00">func2</text>
<text text-anchor="middle" x="644" y="-591.1" font-family="Times,serif" font-size="8.00">0 of 22045kB (93.49%)</text>
</a>
</g>
</g>
<!-- N5 -->
<g id="node5" class="node"><title>N5</title>
<g id="a_node5"><a xlink:title="gvisor.dev/gvisor/pkg/p9.(*pathNode).pathNodeFor (15362.95kB)">
<polygon fill="#edd8d5" stroke="#b21500" points="727.25,-532 560.75,-532 560.75,-422 727.25,-422 727.25,-532"/>
<text text-anchor="middle" x="644" y="-516" font-family="Times,serif" font-size="15.00">gvisor</text>
<text text-anchor="middle" x="644" y="-499" font-family="Times,serif" font-size="15.00">dev/gvisor/pkg/p9</text>
<text text-anchor="middle" x="644" y="-482" font-family="Times,serif" font-size="15.00">(*pathNode)</text>
<text text-anchor="middle" x="644" y="-465" font-family="Times,serif" font-size="15.00">pathNodeFor</text>
<text text-anchor="middle" x="644" y="-448" font-family="Times,serif" font-size="15.00">2050.16kB (8.69%)</text>
<text text-anchor="middle" x="644" y="-431" font-family="Times,serif" font-size="15.00">of 15362.95kB (65.15%)</text>
</a>
</g>
</g>
<!-- N3&#45;&gt;N5 -->
<g id="edge16" class="edge"><title>N3&#45;&gt;N5</title>
<g id="a_edge16"><a xlink:title="gvisor.dev/gvisor/pkg/p9.doWalk.func2 &#45;&gt; gvisor.dev/gvisor/pkg/p9.(*pathNode).pathNodeFor (15362.95kB)">
<path fill="none" stroke="#b21500" stroke-width="4" d="M644,-584.236C644,-572.166 644,-557.192 644,-542.332"/>
<polygon fill="#b21500" stroke="#b21500" points="647.5,-542.099 644,-532.099 640.5,-542.099 647.5,-542.099"/>
</a>
</g>
<g id="a_edge16&#45;label"><a xlink:title="gvisor.dev/gvisor/pkg/p9.doWalk.func2 &#45;&gt; gvisor.dev/gvisor/pkg/p9.(*pathNode).pathNodeFor (15362.95kB)">
<text text-anchor="middle" x="679.5" y="-554.3" font-family="Times,serif" font-size="14.00"> 15362.95kB</text>
</a>
</g>
</g>
<!-- N11 -->
<g id="node11" class="node"><title>N11</title>
<g id="a_node11"><a xlink:title="gvisor.dev/gvisor/pkg/p9.(*pathNode).addChild (6682.05kB)">
<polygon fill="#eddcd5" stroke="#b23800" points="932,-503.5 834,-503.5 834,-450.5 932,-450.5 932,-503.5"/>
<text text-anchor="middle" x="883" y="-493.1" font-family="Times,serif" font-size="8.00">gvisor</text>
<text text-anchor="middle" x="883" y="-484.1" font-family="Times,serif" font-size="8.00">dev/gvisor/pkg/p9</text>
<text text-anchor="middle" x="883" y="-475.1" font-family="Times,serif" font-size="8.00">(*pathNode)</text>
<text text-anchor="middle" x="883" y="-466.1" font-family="Times,serif" font-size="8.00">addChild</text>
<text text-anchor="middle" x="883" y="-457.1" font-family="Times,serif" font-size="8.00">0 of 6682.05kB (28.34%)</text>
</a>
</g>
</g>
<!-- N3&#45;&gt;N11 -->
<g id="edge19" class="edge"><title>N3&#45;&gt;N11</title>
<g id="a_edge19"><a xlink:title="gvisor.dev/gvisor/pkg/p9.doWalk.func2 &#45;&gt; gvisor.dev/gvisor/pkg/p9.(*pathNode).addChild (6682.05kB)">
<path fill="none" stroke="#b23800" stroke-width="2" d="M690.082,-584.549C729.384,-562.843 785.984,-531.582 827.719,-508.532"/>
<polygon fill="#b23800" stroke="#b23800" points="829.591,-511.496 836.653,-503.598 826.207,-505.369 829.591,-511.496"/>
</a>
</g>
<g id="a_edge19&#45;label"><a xlink:title="gvisor.dev/gvisor/pkg/p9.doWalk.func2 &#45;&gt; gvisor.dev/gvisor/pkg/p9.(*pathNode).addChild (6682.05kB)">
<text text-anchor="middle" x="782" y="-554.3" font-family="Times,serif" font-size="14.00"> 6682.05kB</text>
</a>
</g>
</g>
<!-- N4 -->
<g id="node4" class="node"><title>N4</title>
<g id="a_node4"><a xlink:title="gvisor.dev/gvisor/pkg/p9.(*pathNode).addChildLocked (6682.05kB)">
<polygon fill="#eddcd5" stroke="#b23800" points="1062.25,-370 879.75,-370 879.75,-252 1062.25,-252 1062.25,-370"/>
<text text-anchor="middle" x="971" y="-350" font-family="Times,serif" font-size="20.00">gvisor</text>
<text text-anchor="middle" x="971" y="-328" font-family="Times,serif" font-size="20.00">dev/gvisor/pkg/p9</text>
<text text-anchor="middle" x="971" y="-306" font-family="Times,serif" font-size="20.00">(*pathNode)</text>
<text text-anchor="middle" x="971" y="-284" font-family="Times,serif" font-size="20.00">addChildLocked</text>
<text text-anchor="middle" x="971" y="-262" font-family="Times,serif" font-size="20.00">6682.05kB (28.34%)</text>
</a>
</g>
</g>
<!-- NN4_0 -->
<g id="NN4_0" class="node"><title>NN4_0</title>
<g id="a_NN4_0"><a xlink:title="2070.14kB">
<polygon fill="#f8f8f8" stroke="black" points="911,-162 861,-162 857,-158 857,-126 907,-126 911,-130 911,-162"/>
<polyline fill="none" stroke="black" points="907,-158 857,-158 "/>
<polyline fill="none" stroke="black" points="907,-158 907,-126 "/>
<polyline fill="none" stroke="black" points="907,-158 911,-162 "/>
<text text-anchor="middle" x="884" y="-142.1" font-family="Times,serif" font-size="8.00">4kB..28kB</text>
</a>
</g>
</g>
<!-- N4&#45;&gt;NN4_0 -->
<g id="edge4" class="edge"><title>N4&#45;&gt;NN4_0</title>
<g id="a_edge4"><a xlink:title="2070.14kB">
<path fill="none" stroke="black" d="M913.68,-251.575C909.689,-245.89 906.048,-239.998 903,-234 893.188,-214.69 888.436,-190.538 886.139,-172.268"/>
<polygon fill="black" stroke="black" points="889.612,-171.834 885.05,-162.271 882.654,-172.592 889.612,-171.834"/>
</a>
</g>
<g id="a_edge4&#45;label"><a xlink:title="2070.14kB">
<text text-anchor="middle" x="935" y="-222.3" font-family="Times,serif" font-size="14.00"> 2070.14kB</text>
</a>
</g>
</g>
<!-- NN4_1 -->
<g id="NN4_1" class="node"><title>NN4_1</title>
<g id="a_NN4_1"><a xlink:title="2049.75kB">
<polygon fill="#f8f8f8" stroke="black" points="998,-162 948,-162 944,-158 944,-126 994,-126 998,-130 998,-162"/>
<polyline fill="none" stroke="black" points="994,-158 944,-158 "/>
<polyline fill="none" stroke="black" points="994,-158 994,-126 "/>
<polyline fill="none" stroke="black" points="994,-158 998,-162 "/>
<text text-anchor="middle" x="971" y="-142.1" font-family="Times,serif" font-size="8.00">896B</text>
</a>
</g>
</g>
<!-- N4&#45;&gt;NN4_1 -->
<g id="edge5" class="edge"><title>N4&#45;&gt;NN4_1</title>
<g id="a_edge5"><a xlink:title="2049.75kB">
<path fill="none" stroke="black" d="M971,-251.827C971,-224.682 971,-193.678 971,-172.088"/>
<polygon fill="black" stroke="black" points="974.5,-172.016 971,-162.016 967.5,-172.016 974.5,-172.016"/>
</a>
</g>
<g id="a_edge5&#45;label"><a xlink:title="2049.75kB">
<text text-anchor="middle" x="1003" y="-222.3" font-family="Times,serif" font-size="14.00"> 2049.75kB</text>
</a>
</g>
</g>
<!-- NN4_2 -->
<g id="NN4_2" class="node"><title>NN4_2</title>
<g id="a_NN4_2"><a xlink:title="1536.41kB">
<polygon fill="#f8f8f8" stroke="black" points="1085,-162 1035,-162 1031,-158 1031,-126 1081,-126 1085,-130 1085,-162"/>
<polyline fill="none" stroke="black" points="1081,-158 1031,-158 "/>
<polyline fill="none" stroke="black" points="1081,-158 1081,-126 "/>
<polyline fill="none" stroke="black" points="1081,-158 1085,-162 "/>
<text text-anchor="middle" x="1058" y="-142.1" font-family="Times,serif" font-size="8.00">208B..416B</text>
</a>
</g>
</g>
<!-- N4&#45;&gt;NN4_2 -->
<g id="edge6" class="edge"><title>N4&#45;&gt;NN4_2</title>
<g id="a_edge6"><a xlink:title="1536.41kB">
<path fill="none" stroke="black" d="M1025.26,-251.734C1029.24,-245.973 1032.9,-240.022 1036,-234 1045.98,-214.595 1051.58,-190.449 1054.63,-172.206"/>
<polygon fill="black" stroke="black" points="1058.1,-172.639 1056.14,-162.227 1051.18,-171.589 1058.1,-172.639"/>
</a>
</g>
<g id="a_edge6&#45;label"><a xlink:title="1536.41kB">
<text text-anchor="middle" x="1075" y="-222.3" font-family="Times,serif" font-size="14.00"> 1536.41kB</text>
</a>
</g>
</g>
<!-- NN4_3 -->
<g id="NN4_3" class="node"><title>NN4_3</title>
<g id="a_NN4_3"><a xlink:title="1025.75kB">
<polygon fill="#f8f8f8" stroke="black" points="1172,-162 1122,-162 1118,-158 1118,-126 1168,-126 1172,-130 1172,-162"/>
<polyline fill="none" stroke="black" points="1168,-158 1118,-158 "/>
<polyline fill="none" stroke="black" points="1168,-158 1168,-126 "/>
<polyline fill="none" stroke="black" points="1168,-158 1172,-162 "/>
<text text-anchor="middle" x="1145" y="-142.1" font-family="Times,serif" font-size="8.00">1.75kB</text>
</a>
</g>
</g>
<!-- N4&#45;&gt;NN4_3 -->
<g id="edge7" class="edge"><title>N4&#45;&gt;NN4_3</title>
<g id="a_edge7"><a xlink:title="1025.75kB">
<path fill="none" stroke="black" d="M1062.59,-272.513C1080.37,-262.069 1097.61,-249.293 1111,-234 1126.35,-216.465 1135.11,-191.27 1139.87,-172.16"/>
<polygon fill="black" stroke="black" points="1143.32,-172.784 1142.13,-162.256 1136.49,-171.23 1143.32,-172.784"/>
</a>
</g>
<g id="a_edge7&#45;label"><a xlink:title="1025.75kB">
<text text-anchor="middle" x="1153" y="-222.3" font-family="Times,serif" font-size="14.00"> 1025.75kB</text>
</a>
</g>
</g>
<!-- NN5_0 -->
<g id="NN5_0" class="node"><title>NN5_0</title>
<g id="a_NN5_0"><a xlink:title="1025.75kB">
<polygon fill="#f8f8f8" stroke="black" points="584,-329 534,-329 530,-325 530,-293 580,-293 584,-297 584,-329"/>
<polyline fill="none" stroke="black" points="580,-325 530,-325 "/>
<polyline fill="none" stroke="black" points="580,-325 580,-293 "/>
<polyline fill="none" stroke="black" points="580,-325 584,-329 "/>
<text text-anchor="middle" x="557" y="-309.1" font-family="Times,serif" font-size="8.00">1.75kB</text>
</a>
</g>
</g>
<!-- N5&#45;&gt;NN5_0 -->
<g id="edge8" class="edge"><title>N5&#45;&gt;NN5_0</title>
<g id="a_edge8"><a xlink:title="1025.75kB">
<path fill="none" stroke="black" d="M587.248,-421.751C583.022,-416.051 579.177,-410.099 576,-404 565.495,-383.835 560.797,-358.348 558.697,-339.316"/>
<polygon fill="black" stroke="black" points="562.168,-338.847 557.756,-329.214 555.198,-339.496 562.168,-338.847"/>
</a>
</g>
<g id="a_edge8&#45;label"><a xlink:title="1025.75kB">
<text text-anchor="middle" x="608" y="-392.3" font-family="Times,serif" font-size="14.00"> 1025.75kB</text>
</a>
</g>
</g>
<!-- NN5_1 -->
<g id="NN5_1" class="node"><title>NN5_1</title>
<g id="a_NN5_1"><a xlink:title="1024.41kB">
<polygon fill="#f8f8f8" stroke="black" points="671,-329 621,-329 617,-325 617,-293 667,-293 671,-297 671,-329"/>
<polyline fill="none" stroke="black" points="667,-325 617,-325 "/>
<polyline fill="none" stroke="black" points="667,-325 667,-293 "/>
<polyline fill="none" stroke="black" points="667,-325 671,-329 "/>
<text text-anchor="middle" x="644" y="-309.1" font-family="Times,serif" font-size="8.00">416B</text>
</a>
</g>
</g>
<!-- N5&#45;&gt;NN5_1 -->
<g id="edge9" class="edge"><title>N5&#45;&gt;NN5_1</title>
<g id="a_edge9"><a xlink:title="1024.41kB">
<path fill="none" stroke="black" d="M644,-421.846C644,-394.264 644,-361.913 644,-339.495"/>
<polygon fill="black" stroke="black" points="647.5,-339.352 644,-329.352 640.5,-339.352 647.5,-339.352"/>
</a>
</g>
<g id="a_edge9&#45;label"><a xlink:title="1024.41kB">
<text text-anchor="middle" x="676" y="-392.3" font-family="Times,serif" font-size="14.00"> 1024.41kB</text>
</a>
</g>
</g>
<!-- N5&#45;&gt;N2 -->
<g id="edge17" class="edge"><title>N5&#45;&gt;N2</title>
<g id="a_edge17"><a xlink:title="gvisor.dev/gvisor/pkg/p9.(*pathNode).pathNodeFor &#45;&gt; gvisor.dev/gvisor/pkg/p9.newPathNode (13312.80kB)">
<path fill="none" stroke="#b21c00" stroke-width="3" d="M699.497,-421.575C703.215,-415.951 706.478,-410.064 709,-404 734.792,-341.992 735.284,-264.33 731.201,-210.299"/>
<polygon fill="#b21c00" stroke="#b21c00" points="734.674,-209.833 730.36,-200.157 727.698,-210.412 734.674,-209.833"/>
</a>
</g>
<g id="a_edge17&#45;label"><a xlink:title="gvisor.dev/gvisor/pkg/p9.(*pathNode).pathNodeFor &#45;&gt; gvisor.dev/gvisor/pkg/p9.newPathNode (13312.80kB)">
<text text-anchor="middle" x="769.5" y="-307.3" font-family="Times,serif" font-size="14.00"> 13312.80kB</text>
</a>
</g>
</g>
<!-- N9 -->
<g id="node9" class="node"><title>N9</title>
<g id="a_node9"><a xlink:title="gvisor.dev/gvisor/pkg/p9.(*Twalkgetattr).handle (22045kB)">
<polygon fill="#edd5d5" stroke="#b20300" points="690,-979.5 598,-979.5 598,-926.5 690,-926.5 690,-979.5"/>
<text text-anchor="middle" x="644" y="-969.1" font-family="Times,serif" font-size="8.00">gvisor</text>
<text text-anchor="middle" x="644" y="-960.1" font-family="Times,serif" font-size="8.00">dev/gvisor/pkg/p9</text>
<text text-anchor="middle" x="644" y="-951.1" font-family="Times,serif" font-size="8.00">(*Twalkgetattr)</text>
<text text-anchor="middle" x="644" y="-942.1" font-family="Times,serif" font-size="8.00">handle</text>
<text text-anchor="middle" x="644" y="-933.1" font-family="Times,serif" font-size="8.00">0 of 22045kB (93.49%)</text>
</a>
</g>
</g>
<!-- N6&#45;&gt;N9 -->
<g id="edge13" class="edge"><title>N6&#45;&gt;N9</title>
<g id="a_edge13"><a xlink:title="gvisor.dev/gvisor/pkg/p9.(*connState).handleRequest &#45;&gt; gvisor.dev/gvisor/pkg/p9.(*Twalkgetattr).handle (22045kB)">
<path fill="none" stroke="#b20300" stroke-width="5" d="M644,-1032.29C644,-1019.54 644,-1003.93 644,-990.011"/>
<polygon fill="#b20300" stroke="#b20300" points="648.375,-989.773 644,-979.773 639.625,-989.773 648.375,-989.773"/>
</a>
</g>
<g id="a_edge13&#45;label"><a xlink:title="gvisor.dev/gvisor/pkg/p9.(*connState).handleRequest &#45;&gt; gvisor.dev/gvisor/pkg/p9.(*Twalkgetattr).handle (22045kB)">
<text text-anchor="middle" x="671" y="-1002.3" font-family="Times,serif" font-size="14.00"> 22045kB</text>
</a>
</g>
</g>
<!-- N13 -->
<g id="node13" class="node"><title>N13</title>
<g id="a_node13"><a xlink:title="gvisor.dev/gvisor/pkg/p9.recv (1024.03kB)">
<polygon fill="#edebe8" stroke="#b2a38b" points="802,-975 708,-975 708,-931 802,-931 802,-975"/>
<text text-anchor="middle" x="755" y="-964.6" font-family="Times,serif" font-size="8.00">gvisor</text>
<text text-anchor="middle" x="755" y="-955.6" font-family="Times,serif" font-size="8.00">dev/gvisor/pkg/p9</text>
<text text-anchor="middle" x="755" y="-946.6" font-family="Times,serif" font-size="8.00">recv</text>
<text text-anchor="middle" x="755" y="-937.6" font-family="Times,serif" font-size="8.00">0 of 1024.03kB (4.34%)</text>
</a>
</g>
</g>
<!-- N6&#45;&gt;N13 -->
<g id="edge21" class="edge"><title>N6&#45;&gt;N13</title>
<g id="a_edge21"><a xlink:title="gvisor.dev/gvisor/pkg/p9.(*connState).handleRequest &#45;&gt; gvisor.dev/gvisor/pkg/p9.recv (1024.03kB)">
<path fill="none" stroke="#b2a38b" d="M680.174,-1032.31C687.615,-1026.55 695.237,-1020.28 702,-1014 712.209,-1004.53 722.546,-993.274 731.348,-983.09"/>
<polygon fill="#b2a38b" stroke="#b2a38b" points="734.239,-985.092 738.045,-975.205 728.904,-980.561 734.239,-985.092"/>
</a>
</g>
<g id="a_edge21&#45;label"><a xlink:title="gvisor.dev/gvisor/pkg/p9.(*connState).handleRequest &#45;&gt; gvisor.dev/gvisor/pkg/p9.recv (1024.03kB)">
<text text-anchor="middle" x="750" y="-1002.3" font-family="Times,serif" font-size="14.00"> 1024.03kB</text>
</a>
</g>
</g>
<!-- N7 -->
<g id="node7" class="node"><title>N7</title>
<g id="a_node7"><a xlink:title="gvisor.dev/gvisor/pkg/p9.(*buffer).ReadString (1024.03kB)">
<polygon fill="#edebe8" stroke="#b2a38b" points="830,-768 708,-768 708,-690 830,-690 830,-768"/>
<text text-anchor="middle" x="769" y="-753.6" font-family="Times,serif" font-size="13.00">gvisor</text>
<text text-anchor="middle" x="769" y="-739.6" font-family="Times,serif" font-size="13.00">dev/gvisor/pkg/p9</text>
<text text-anchor="middle" x="769" y="-725.6" font-family="Times,serif" font-size="13.00">(*buffer)</text>
<text text-anchor="middle" x="769" y="-711.6" font-family="Times,serif" font-size="13.00">ReadString</text>
<text text-anchor="middle" x="769" y="-697.6" font-family="Times,serif" font-size="13.00">1024.03kB (4.34%)</text>
</a>
</g>
</g>
<!-- NN7_0 -->
<g id="NN7_0" class="node"><title>NN7_0</title>
<g id="a_NN7_0"><a xlink:title="1024.03kB">
<polygon fill="#f8f8f8" stroke="black" points="796,-629 746,-629 742,-625 742,-593 792,-593 796,-597 796,-629"/>
<polyline fill="none" stroke="black" points="792,-625 742,-625 "/>
<polyline fill="none" stroke="black" points="792,-625 792,-593 "/>
<polyline fill="none" stroke="black" points="792,-625 796,-629 "/>
<text text-anchor="middle" x="769" y="-609.1" font-family="Times,serif" font-size="8.00">32B</text>
</a>
</g>
</g>
<!-- N7&#45;&gt;NN7_0 -->
<g id="edge10" class="edge"><title>N7&#45;&gt;NN7_0</title>
<g id="a_edge10"><a xlink:title="1024.03kB">
<path fill="none" stroke="black" d="M769,-689.696C769,-673.234 769,-654.37 769,-639.352"/>
<polygon fill="black" stroke="black" points="772.5,-639.185 769,-629.185 765.5,-639.185 772.5,-639.185"/>
</a>
</g>
<g id="a_edge10&#45;label"><a xlink:title="1024.03kB">
<text text-anchor="middle" x="801" y="-660.3" font-family="Times,serif" font-size="14.00"> 1024.03kB</text>
</a>
</g>
</g>
<!-- N8 -->
<g id="node8" class="node"><title>N8</title>
<g id="a_node8"><a xlink:title="gvisor.dev/gvisor/pkg/p9.(*Twalkgetattr).Decode (1024.03kB)">
<polygon fill="#edebe8" stroke="#b2a38b" points="809,-873.5 715,-873.5 715,-820.5 809,-820.5 809,-873.5"/>
<text text-anchor="middle" x="762" y="-863.1" font-family="Times,serif" font-size="8.00">gvisor</text>
<text text-anchor="middle" x="762" y="-854.1" font-family="Times,serif" font-size="8.00">dev/gvisor/pkg/p9</text>
<text text-anchor="middle" x="762" y="-845.1" font-family="Times,serif" font-size="8.00">(*Twalkgetattr)</text>
<text text-anchor="middle" x="762" y="-836.1" font-family="Times,serif" font-size="8.00">Decode</text>
<text text-anchor="middle" x="762" y="-827.1" font-family="Times,serif" font-size="8.00">0 of 1024.03kB (4.34%)</text>
</a>
</g>
</g>
<!-- N8&#45;&gt;N7 -->
<g id="edge20" class="edge"><title>N8&#45;&gt;N7</title>
<g id="a_edge20"><a xlink:title="gvisor.dev/gvisor/pkg/p9.(*Twalkgetattr).Decode &#45;&gt; gvisor.dev/gvisor/pkg/p9.(*buffer).ReadString (1024.03kB)">
<path fill="none" stroke="#b2a38b" d="M763.554,-820.256C764.299,-807.902 765.217,-792.686 766.086,-778.292"/>
<polygon fill="#b2a38b" stroke="#b2a38b" points="769.598,-778.201 766.706,-768.008 762.61,-777.779 769.598,-778.201"/>
</a>
</g>
<g id="a_edge20&#45;label"><a xlink:title="gvisor.dev/gvisor/pkg/p9.(*Twalkgetattr).Decode &#45;&gt; gvisor.dev/gvisor/pkg/p9.(*buffer).ReadString (1024.03kB)">
<text text-anchor="middle" x="798" y="-790.3" font-family="Times,serif" font-size="14.00"> 1024.03kB</text>
</a>
</g>
</g>
<!-- N12 -->
<g id="node12" class="node"><title>N12</title>
<g id="a_node12"><a xlink:title="gvisor.dev/gvisor/pkg/p9.doWalk (22045kB)">
<polygon fill="#edd5d5" stroke="#b20300" points="690,-869 598,-869 598,-825 690,-825 690,-869"/>
<text text-anchor="middle" x="644" y="-858.6" font-family="Times,serif" font-size="8.00">gvisor</text>
<text text-anchor="middle" x="644" y="-849.6" font-family="Times,serif" font-size="8.00">dev/gvisor/pkg/p9</text>
<text text-anchor="middle" x="644" y="-840.6" font-family="Times,serif" font-size="8.00">doWalk</text>
<text text-anchor="middle" x="644" y="-831.6" font-family="Times,serif" font-size="8.00">0 of 22045kB (93.49%)</text>
</a>
</g>
</g>
<!-- N9&#45;&gt;N12 -->
<g id="edge12" class="edge"><title>N9&#45;&gt;N12</title>
<g id="a_edge12"><a xlink:title="gvisor.dev/gvisor/pkg/p9.(*Twalkgetattr).handle &#45;&gt; gvisor.dev/gvisor/pkg/p9.doWalk (22045kB)">
<path fill="none" stroke="#b20300" stroke-width="5" d="M644,-926.292C644,-912.158 644,-894.508 644,-879.546"/>
<polygon fill="#b20300" stroke="#b20300" points="648.375,-879.214 644,-869.214 639.625,-879.214 648.375,-879.214"/>
</a>
</g>
<g id="a_edge12&#45;label"><a xlink:title="gvisor.dev/gvisor/pkg/p9.(*Twalkgetattr).handle &#45;&gt; gvisor.dev/gvisor/pkg/p9.doWalk (22045kB)">
<text text-anchor="middle" x="671" y="-896.3" font-family="Times,serif" font-size="14.00"> 22045kB</text>
</a>
</g>
</g>
<!-- N10 -->
<g id="node10" class="node"><title>N10</title>
<g id="a_node10"><a xlink:title="gvisor.dev/gvisor/pkg/p9.(*fidRef).safelyRead (22045kB)">
<polygon fill="#edd5d5" stroke="#b20300" points="690,-755.5 598,-755.5 598,-702.5 690,-702.5 690,-755.5"/>
<text text-anchor="middle" x="644" y="-745.1" font-family="Times,serif" font-size="8.00">gvisor</text>
<text text-anchor="middle" x="644" y="-736.1" font-family="Times,serif" font-size="8.00">dev/gvisor/pkg/p9</text>
<text text-anchor="middle" x="644" y="-727.1" font-family="Times,serif" font-size="8.00">(*fidRef)</text>
<text text-anchor="middle" x="644" y="-718.1" font-family="Times,serif" font-size="8.00">safelyRead</text>
<text text-anchor="middle" x="644" y="-709.1" font-family="Times,serif" font-size="8.00">0 of 22045kB (93.49%)</text>
</a>
</g>
</g>
<!-- N10&#45;&gt;N3 -->
<g id="edge14" class="edge"><title>N10&#45;&gt;N3</title>
<g id="a_edge14"><a xlink:title="gvisor.dev/gvisor/pkg/p9.(*fidRef).safelyRead &#45;&gt; gvisor.dev/gvisor/pkg/p9.doWalk.func2 (22045kB)">
<path fill="none" stroke="#b20300" stroke-width="5" d="M644,-702.256C644,-686.337 644,-665.664 644,-648.121"/>
<polygon fill="#b20300" stroke="#b20300" points="648.375,-647.672 644,-637.672 639.625,-647.672 648.375,-647.672"/>
</a>
</g>
<g id="a_edge14&#45;label"><a xlink:title="gvisor.dev/gvisor/pkg/p9.(*fidRef).safelyRead &#45;&gt; gvisor.dev/gvisor/pkg/p9.doWalk.func2 (22045kB)">
<text text-anchor="middle" x="671" y="-660.3" font-family="Times,serif" font-size="14.00"> 22045kB</text>
</a>
</g>
</g>
<!-- N11&#45;&gt;N4 -->
<g id="edge18" class="edge"><title>N11&#45;&gt;N4</title>
<g id="a_edge18"><a xlink:title="gvisor.dev/gvisor/pkg/p9.(*pathNode).addChild &#45;&gt; gvisor.dev/gvisor/pkg/p9.(*pathNode).addChildLocked (6682.05kB)">
<path fill="none" stroke="#b23800" stroke-width="2" d="M896.75,-450.375C906.997,-431.279 921.485,-404.278 934.947,-379.189"/>
<polygon fill="#b23800" stroke="#b23800" points="938.206,-380.518 939.851,-370.051 932.038,-377.208 938.206,-380.518"/>
</a>
</g>
<g id="a_edge18&#45;label"><a xlink:title="gvisor.dev/gvisor/pkg/p9.(*pathNode).addChild &#45;&gt; gvisor.dev/gvisor/pkg/p9.(*pathNode).addChildLocked (6682.05kB)">
<text text-anchor="middle" x="962" y="-392.3" font-family="Times,serif" font-size="14.00"> 6682.05kB</text>
</a>
</g>
</g>
<!-- N12&#45;&gt;N10 -->
<g id="edge15" class="edge"><title>N12&#45;&gt;N10</title>
<g id="a_edge15"><a xlink:title="gvisor.dev/gvisor/pkg/p9.doWalk &#45;&gt; gvisor.dev/gvisor/pkg/p9.(*fidRef).safelyRead (22045kB)">
<path fill="none" stroke="#b20300" stroke-width="5" d="M644,-824.993C644,-808.501 644,-785.16 644,-765.743"/>
<polygon fill="#b20300" stroke="#b20300" points="648.375,-765.716 644,-755.716 639.625,-765.716 648.375,-765.716"/>
</a>
</g>
<g id="a_edge15&#45;label"><a xlink:title="gvisor.dev/gvisor/pkg/p9.doWalk &#45;&gt; gvisor.dev/gvisor/pkg/p9.(*fidRef).safelyRead (22045kB)">
<text text-anchor="middle" x="671" y="-790.3" font-family="Times,serif" font-size="14.00"> 22045kB</text>
</a>
</g>
</g>
<!-- N13&#45;&gt;N8 -->
<g id="edge22" class="edge"><title>N13&#45;&gt;N8</title>
<g id="a_edge22"><a xlink:title="gvisor.dev/gvisor/pkg/p9.recv &#45;&gt; gvisor.dev/gvisor/pkg/p9.(*Twalkgetattr).Decode (1024.03kB)">
<path fill="none" stroke="#b2a38b" d="M756.417,-930.954C757.319,-917.548 758.512,-899.825 759.563,-884.204"/>
<polygon fill="#b2a38b" stroke="#b2a38b" points="763.084,-884.016 760.263,-873.804 756.099,-883.546 763.084,-884.016"/>
</a>
</g>
<g id="a_edge22&#45;label"><a xlink:title="gvisor.dev/gvisor/pkg/p9.recv &#45;&gt; gvisor.dev/gvisor/pkg/p9.(*Twalkgetattr).Decode (1024.03kB)">
<text text-anchor="middle" x="791" y="-896.3" font-family="Times,serif" font-size="14.00"> 1024.03kB</text>
</a>
</g>
</g>
</g>
</g></svg>
